<?xml version="1.0" standalone="no"?>
<!DOCTYPE svg PUBLIC "-//W3C//DTD SVG 20010904//EN"
 "http://www.w3.org/TR/2001/REC-SVG-20010904/DTD/svg10.dtd">
<svg version="1.0" xmlns="http://www.w3.org/2000/svg"
 width="473.000000pt" height="528.000000pt" viewBox="0 0 473.000000 528.000000"
 preserveAspectRatio="xMidYMid meet">

<g transform="translate(0.000000,528.000000) scale(0.100000,-0.100000)"
fill="#000000" stroke="none">
<path d="M2210 5050 c-235 -29 -448 -109 -640 -241 -631 -432 -798 -1287 -377
-1927 85 -128 244 -293 365 -377 46 -32 80 -61 75 -65 -4 -3 -61 -28 -126 -55
-248 -101 -483 -260 -693 -469 -352 -352 -567 -785 -629 -1271 -19 -147 -15
-181 22 -226 51 -61 129 -75 197 -36 52 30 72 73 86 187 86 738 587 1351 1290
1580 218 71 313 85 585 85 211 0 254 -3 354 -23 600 -122 1093 -503 1351
-1046 93 -194 143 -370 174 -607 16 -120 31 -151 87 -180 68 -34 142 -19 192
40 36 43 42 84 27 199 -41 338 -165 678 -347 952 -245 370 -599 662 -999 825
-58 24 -108 45 -110 48 -3 3 32 30 77 62 394 276 617 730 596 1210 -16 346
-146 654 -379 901 -204 215 -489 369 -775 419 -111 20 -306 27 -403 15z m376
-324 c223 -48 422 -160 576 -324 125 -133 217 -299 265 -479 23 -87 27 -117
27 -268 0 -144 -3 -183 -21 -252 -61 -227 -154 -385 -319 -543 -90 -85 -157
-132 -272 -189 -287 -144 -643 -146 -936 -8 -125 60 -205 115 -303 210 -143
139 -247 318 -300 514 -24 88 -27 116 -27 268 0 152 3 180 27 268 97 361 358
643 707 765 47 16 119 35 160 42 41 6 82 13 90 15 34 9 260 -5 326 -19z"/>
</g>
</svg>
